<svg width="184" height="66" xmlns="http://www.w3.org/2000/svg" xmlns:xlink="http://www.w3.org/1999/xlink" xml:space="preserve" overflow="hidden"><defs><linearGradient x1="23.1041" y1="66.3706" x2="51.6972" y2="20.4257" gradientUnits="userSpaceOnUse" spreadMethod="pad" id="fill0"><stop offset="0" stop-color="#845EC2"/><stop offset="0.230769" stop-color="#845EC2"/><stop offset="0.548077" stop-color="#FF6971"/><stop offset="0.817308" stop-color="#F9F871"/><stop offset="1" stop-color="#F9F871"/></linearGradient><linearGradient x1="63.9633" y1="32.5415" x2="83.5705" y2="-11.4513" gradientUnits="userSpaceOnUse" spreadMethod="pad" id="fill1"><stop offset="0" stop-color="#845EC2"/><stop offset="0.230769" stop-color="#845EC2"/><stop offset="0.548077" stop-color="#FF6971"/><stop offset="0.817308" stop-color="#F9F871"/><stop offset="1" stop-color="#F9F871"/></linearGradient></defs><g transform="translate(-6 -28)"><path d="M41.9408 55.2028 28.3618 61.5347C26.6866 62.3157 25.1602 62.7094 23.783 62.7163 22.4022 62.7147 21.212 62.3824 20.2127 61.7195 19.2013 61.0526 18.4102 60.1069 17.8396 58.8832 17.2981 57.7222 17.0609 56.5945 17.1276 55.5009 17.1859 54.411 17.4818 53.4327 18.0155 52.5674 18.5455 51.694 19.2444 51.017 20.1121 50.5365L24.5014 48.3193C23.602 48.5109 22.7389 48.5049 21.9129 48.302 21.0748 48.0951 20.3122 47.6962 19.6249 47.1056 18.9376 46.5154 18.3685 45.7369 17.9178 44.7707 17.3437 43.5393 17.1237 42.3276 17.258 41.1361 17.3839 39.9482 17.8684 38.8443 18.7114 37.825 19.5545 36.8057 20.7629 35.929 22.3365 35.1952L30.776 31.2598 41.9408 55.2028ZM41.036 26.4755C42.6097 25.7417 44.058 25.3795 45.3809 25.3889 46.7035 25.3983 47.8605 25.7367 48.8512 26.4038 49.8507 27.0669 50.6378 28.014 51.2119 29.2454 51.6626 30.2117 51.8928 31.1481 51.9033 32.054 51.9137 32.96 51.7289 33.8008 51.3485 34.5758 50.9732 35.3391 50.4232 36.0038 49.6985 36.5696L54.2181 34.6325C55.1442 34.2767 56.112 34.1764 57.1216 34.3318 58.1279 34.4794 59.0672 34.8813 59.9394 35.5372 60.8204 36.1891 61.5311 37.0959 62.0727 38.2571 62.6436 39.4807 62.8593 40.6945 62.7199 41.8982 62.5857 43.0897 62.0751 44.215 61.1888 45.2736 60.2986 46.3242 59.0158 47.2406 57.3405 48.0216L43.7611 54.3535 32.5965 30.4109 41.036 26.4755ZM22.9521 50.0661C21.7592 50.6225 20.8189 51.3456 20.1317 52.2355 19.4409 53.1173 19.027 54.0743 18.8901 55.1056 18.7447 56.1413 18.9065 57.1617 19.3753 58.1673 20.0404 59.5935 21.1124 60.5123 22.5915 60.9233 24.0623 61.3383 25.775 61.0896 27.7294 60.1784L39.7221 54.5861 34.9957 44.4501 22.9521 50.0661ZM44.7156 52.2576 56.7082 46.6653C58.6627 45.7541 59.9535 44.6019 60.581 43.2087 61.217 41.8114 61.2025 40.3992 60.5376 38.973 60.0688 37.9677 59.3906 37.1877 58.504 36.6334 57.6257 36.0752 56.6266 35.7775 55.5069 35.7397 54.3836 35.6943 53.2254 35.9495 52.0326 36.5058L39.989 42.1219 44.7156 52.2576ZM22.9689 36.5514C21.1246 37.4114 19.9048 38.5067 19.3099 39.8372 18.715 41.1678 18.7631 42.5739 19.4535 44.0543 19.8787 44.9663 20.4732 45.6999 21.2366 46.2547 21.9916 46.8135 22.8617 47.1337 23.8472 47.2153 24.8243 47.3005 25.8671 47.0843 26.9755 46.5677L34.3742 43.1175 29.8222 33.3556 22.9689 36.5514ZM39.3675 40.7889 46.7661 37.339C47.8745 36.8222 48.7102 36.1622 49.2726 35.359 49.8439 34.5518 50.1581 33.6791 50.2155 32.7416 50.281 31.8001 50.1014 30.8733 49.676 29.9615 48.9858 28.4807 47.9392 27.5403 46.5375 27.1408 45.1358 26.7413 43.5128 26.9716 41.6684 27.8316L34.8155 31.0272 39.3675 40.7889ZM28.3732 9.1687C27.2898 9.67398 26.7105 10.272 26.4905 10.9796 26.3014 11.5875 26.3331 12.4165 26.7638 13.5672 30.3235 13.2215 33.8724 15.1142 35.47 18.5401 37.4958 22.8848 35.6162 28.049 31.2716 30.0751 26.9269 32.1011 21.7623 30.2215 19.7362 25.8769 18.0868 22.3396 19.0262 18.259 21.7769 15.771 21.19 14.7639 20.5948 14.2327 20.0254 13.9942 19.3419 13.708 18.5115 13.7674 17.428 14.2726L16.7489 12.8162C18.0595 12.205 19.3894 11.9856 20.6464 12.5121 21.5967 12.9101 22.3917 13.6895 23.0709 14.8048 23.3469 14.6363 23.6349 14.4812 23.9348 14.3414 24.3397 14.1525 24.7518 13.9976 25.1678 13.8755 24.7377 12.6215 24.6466 11.4974 24.9559 10.5025 25.3606 9.20121 26.3835 8.32347 27.6941 7.71229L28.3732 9.1687ZM24.6685 15.9148C21.1927 17.5356 19.6888 21.6673 21.3097 25.1432 22.9305 28.6189 27.0621 30.1224 30.5379 28.5017 34.0136 26.8808 35.5172 22.7495 33.8966 19.2738 32.2758 15.798 28.1443 14.2941 24.6685 15.9148ZM28.4871 18.0946C28.8025 17.9476 29.1115 17.8789 29.414 17.8888 29.7167 17.8988 29.9952 17.978 30.249 18.1262 30.5045 18.2737 30.7182 18.4774 30.8898 18.7374L30.1011 19.1051C29.9448 18.9094 29.7546 18.7788 29.5309 18.7131 29.3072 18.6474 29.0677 18.6737 28.8126 18.7926 28.4247 18.9735 28.2009 19.2838 28.1412 19.723 28.0833 20.1613 28.1939 20.6819 28.4728 21.2843L28.5116 21.2663C28.533 21.0737 28.5853 20.8937 28.669 20.7266 28.7536 20.557 28.8656 20.4051 29.0046 20.271 29.1444 20.1345 29.3065 20.0233 29.4909 19.9373 29.7978 19.7942 30.1104 19.7398 30.4286 19.7741 30.7478 19.8058 31.0426 19.9181 31.313 20.111 31.5834 20.3039 31.7977 20.5693 31.9553 20.9071 32.1127 21.245 32.1784 21.5867 32.1528 21.9323 32.1289 22.2771 32.0166 22.5941 31.8156 22.8831 31.6137 23.1703 31.3276 23.3983 30.9571 23.5669 30.7193 23.6736 30.4662 23.739 30.1984 23.7632 29.9322 23.7865 29.6611 23.7448 29.3849 23.6386 29.1087 23.5323 28.8383 23.3426 28.5743 23.069 28.3121 22.7947 28.0674 22.4135 27.8399 21.9258 27.6245 21.4638 27.4786 21.0321 27.4027 20.6309 27.3287 20.229 27.3214 19.8638 27.3805 19.5361 27.4389 19.2067 27.561 18.9198 27.7472 18.6756 27.9334 18.4313 28.1802 18.2377 28.4871 18.0946ZM23.8142 20.2737C24.1469 20.1185 24.471 20.0482 24.7863 20.0627 25.1025 20.0748 25.3854 20.1613 25.6346 20.3222 25.8829 20.4812 26.0732 20.703 26.2058 20.9874 26.2974 21.1839 26.3503 21.3934 26.3638 21.6158 26.379 21.8375 26.3499 22.106 26.2767 22.4214 26.2026 22.735 26.0805 23.131 25.9109 23.6088L25.3722 25.2015 25.3903 25.2403 27.7744 24.1285 28.0939 24.8137 24.6083 26.4391 24.3382 25.8599 25.2644 23.1674C25.3617 22.8765 25.4371 22.6261 25.4905 22.4166 25.5447 22.2045 25.5705 22.0151 25.5683 21.8483 25.566 21.6814 25.5288 21.5204 25.4565 21.3653 25.3745 21.1895 25.2624 21.057 25.1202 20.968 24.9772 20.8774 24.8178 20.8307 24.6425 20.8285 24.4666 20.8245 24.2888 20.8644 24.1096 20.948 23.92 21.0364 23.7726 21.1523 23.6674 21.2957 23.5622 21.4392 23.5049 21.5995 23.4949 21.7762 23.485 21.9528 23.5242 22.136 23.6126 22.3256L22.8495 22.6814C22.6993 22.3591 22.6421 22.0425 22.6778 21.7321 22.7136 21.4217 22.8297 21.1398 23.0264 20.8865 23.2222 20.6314 23.4849 20.4272 23.8142 20.2737ZM29.6228 20.6658C29.4695 20.7373 29.3409 20.8333 29.2373 20.9529 29.1354 21.0718 29.0592 21.2058 29.0092 21.355 28.9591 21.5042 28.9373 21.6594 28.9431 21.8204 28.9498 21.9788 28.9876 22.1322 29.0567 22.2804 29.1492 22.4787 29.2808 22.6412 29.451 22.7675 29.6228 22.893 29.8131 22.9702 30.0216 22.9988 30.231 23.0249 30.4374 22.9906 30.6407 22.8959 30.8441 22.801 31.0028 22.6661 31.1165 22.4913 31.2302 22.3165 31.2941 22.1229 31.3084 21.9105 31.3227 21.6982 31.2814 21.4878 31.1842 21.2792 31.0893 21.0758 30.957 20.9118 30.7876 20.7871 30.62 20.6618 30.434 20.5868 30.2296 20.5625 30.027 20.5374 29.8246 20.5718 29.6228 20.6658Z" fill="url(#fill0)" transform="matrix(1 0 0 1.00787 6 28)"/><path d="M67.8711 39.3712 67.8711 25.3466 72.7744 25.3466C73.7511 25.3466 74.557 25.5155 75.1917 25.8533 75.8261 26.1866 76.2985 26.6362 76.6091 27.2024 76.9196 27.7639 77.0747 28.3871 77.0747 29.0718 77.0747 29.6745 76.9674 30.1721 76.7529 30.5647 76.5428 30.9573 76.2644 31.2677 75.9177 31.496 75.575 31.7243 75.203 31.8932 74.8012 32.0028L74.8012 32.1397C75.2303 32.1671 75.6618 32.3178 76.0956 32.5917 76.5291 32.8656 76.8923 33.2582 77.1844 33.7695 77.4765 34.2808 77.6227 34.9063 77.6227 35.6459 77.6227 36.349 77.4628 36.9812 77.1434 37.5428 76.8236 38.1043 76.3194 38.5494 75.63 38.8781 74.9406 39.2068 74.0435 39.3712 72.9387 39.3712L67.8711 39.3712ZM69.5693 37.8646 72.9387 37.8646C74.048 37.8646 74.8354 37.6501 75.301 37.2209 75.7714 36.7872 76.0065 36.2622 76.0065 35.6459 76.0065 35.1711 75.8855 34.7328 75.6437 34.3311 75.4014 33.9248 75.0567 33.6006 74.6096 33.3587 74.162 33.1122 73.6325 32.9889 73.0207 32.9889L69.5693 32.9889 69.5693 37.8646ZM69.5693 31.5097 72.7194 31.5097C73.2308 31.5097 73.692 31.4093 74.1026 31.2084 74.5184 31.0075 74.847 30.7245 75.0889 30.3593 75.3355 29.994 75.4585 29.5649 75.4585 29.0718 75.4585 28.4555 75.2439 27.9328 74.8149 27.5037 74.3858 27.07 73.7057 26.8531 72.7744 26.8531L69.5693 26.8531 69.5693 31.5097ZM86.8227 35.0707 86.8227 28.8527 88.4389 28.8527 88.4389 39.3712 86.8227 39.3712 86.8227 37.5907 86.7134 37.5907C86.4667 38.1248 86.0831 38.5791 85.5628 38.9534 85.0425 39.3232 84.3849 39.5081 83.5906 39.5081 82.9334 39.5081 82.3488 39.3643 81.8374 39.0767 81.3264 38.7845 80.9246 38.3463 80.6322 37.7619 80.3401 37.173 80.1939 36.4311 80.1939 35.5363L80.1939 28.8527 81.8101 28.8527 81.8101 35.4268C81.8101 36.1937 82.0246 36.8055 82.4537 37.262 82.8876 37.7186 83.44 37.9468 84.1109 37.9468 84.5126 37.9468 84.9212 37.8441 85.337 37.6386 85.7569 37.4332 86.1084 37.1182 86.3916 36.6936 86.6789 36.2691 86.8227 35.7281 86.8227 35.0707ZM95.6446 43.5349C94.8641 43.5349 94.1931 43.4344 93.6315 43.2336 93.0698 43.0371 92.6018 42.7768 92.2278 42.4526 91.8578 42.1332 91.5633 41.7909 91.3443 41.4257L92.6315 40.5218C92.7778 40.7134 92.9626 40.9324 93.1864 41.179 93.4101 41.4301 93.7159 41.6471 94.1039 41.8295 94.4965 42.0167 95.0103 42.1103 95.6446 42.1103 96.4939 42.1103 97.1946 41.905 97.747 41.494 98.2994 41.083 98.5758 40.4394 98.5758 39.5629L98.5758 37.4264 98.4388 37.4264C98.3199 37.6181 98.1511 37.8555 97.9318 38.1385 97.7173 38.417 97.4071 38.6658 97.0005 38.885 96.5988 39.0996 96.0556 39.2068 95.3707 39.2068 94.5218 39.2068 93.7592 39.006 93.0835 38.6042 92.4126 38.2025 91.8807 37.6181 91.4882 36.8511 91.1001 36.0842 90.906 35.1528 90.906 34.0572 90.906 32.9797 91.0953 32.0416 91.4745 31.2426 91.8534 30.4391 92.3805 29.8183 93.0562 29.38 93.7319 28.9372 94.5125 28.7158 95.3984 28.7158 96.0829 28.7158 96.6261 28.8299 97.0279 29.0581 97.4344 29.2819 97.7446 29.5375 97.9595 29.8251 98.1785 30.1082 98.3472 30.341 98.4661 30.5236L98.6304 30.5236 98.6304 28.8527 100.192 28.8527 100.192 39.6725C100.192 40.5764 99.9863 41.3116 99.5753 41.8777 99.1692 42.4482 98.6212 42.866 97.9318 43.1307 97.2472 43.3999 96.4847 43.5349 95.6446 43.5349ZM95.59 37.7551C96.238 37.7551 96.786 37.6067 97.2336 37.3099 97.6807 37.0132 98.021 36.5863 98.254 36.0294 98.4866 35.4724 98.6031 34.8059 98.6031 34.0298 98.6031 33.2719 98.489 32.6031 98.2608 32.0233 98.0322 31.4435 97.6944 30.9893 97.2472 30.6606 96.7997 30.3319 96.2473 30.1675 95.59 30.1675 94.905 30.1675 94.3345 30.341 93.8778 30.688 93.4258 31.0349 93.0859 31.5006 92.8577 32.0849 92.634 32.6693 92.5219 33.3176 92.5219 34.0298 92.5219 34.7602 92.6364 35.4062 92.8646 35.9677 93.0972 36.5247 93.4399 36.963 93.8918 37.2825 94.3482 37.5975 94.9143 37.7551 95.59 37.7551ZM103.369 39.3712 103.369 25.3466 108.272 25.3466C109.249 25.3466 110.055 25.5155 110.69 25.8533 111.324 26.1866 111.797 26.6362 112.107 27.2024 112.418 27.7639 112.573 28.3871 112.573 29.0718 112.573 29.6745 112.466 30.1721 112.251 30.5647 112.041 30.9573 111.763 31.2677 111.416 31.496 111.073 31.7243 110.701 31.8932 110.299 32.0028L110.299 32.1397C110.729 32.1671 111.16 32.3178 111.594 32.5917 112.027 32.8656 112.39 33.2582 112.682 33.7695 112.975 34.2808 113.121 34.9063 113.121 35.6459 113.121 36.349 112.961 36.9812 112.641 37.5428 112.322 38.1043 111.817 38.5494 111.128 38.8781 110.439 39.2068 109.541 39.3712 108.437 39.3712L103.369 39.3712ZM105.068 37.8646 108.437 37.8646C109.546 37.8646 110.334 37.6501 110.799 37.2209 111.269 36.7872 111.504 36.2622 111.504 35.6459 111.504 35.1711 111.383 34.7328 111.142 34.3311 110.9 33.9248 110.555 33.6006 110.108 33.3587 109.66 33.1122 109.13 32.9889 108.519 32.9889L105.068 32.9889 105.068 37.8646ZM105.068 31.5097 108.218 31.5097C108.729 31.5097 109.19 31.4093 109.601 31.2084 110.016 31.0075 110.345 30.7245 110.587 30.3593 110.833 29.994 110.957 29.5649 110.957 29.0718 110.957 28.4555 110.742 27.9328 110.313 27.5037 109.884 27.07 109.204 26.8531 108.272 26.8531L105.068 26.8531 105.068 31.5097ZM119.965 39.5903C119.016 39.5903 118.183 39.3643 117.466 38.9124 116.754 38.4604 116.196 37.8281 115.795 37.0155 115.398 36.2028 115.199 35.2533 115.199 34.1668 115.199 33.0711 115.398 32.1146 115.795 31.2974 116.196 30.4802 116.754 29.8457 117.466 29.3937 118.183 28.9418 119.016 28.7158 119.965 28.7158 120.915 28.7158 121.746 28.9418 122.458 29.3937 123.175 29.8457 123.732 30.4802 124.129 31.2974 124.531 32.1146 124.732 33.0711 124.732 34.1668 124.732 35.2533 124.531 36.2028 124.129 37.0155 123.732 37.8281 123.175 38.4604 122.458 38.9124 121.746 39.3643 120.915 39.5903 119.965 39.5903ZM119.965 38.1385C120.687 38.1385 121.28 37.9537 121.746 37.5838 122.211 37.2141 122.556 36.7279 122.78 36.1253 123.004 35.5226 123.115 34.8698 123.115 34.1668 123.115 33.4637 123.004 32.8086 122.78 32.2014 122.556 31.5942 122.211 31.1034 121.746 30.729 121.28 30.3547 120.687 30.1675 119.965 30.1675 119.244 30.1675 118.65 30.3547 118.185 30.729 117.719 31.1034 117.374 31.5942 117.151 32.2014 116.927 32.8086 116.815 33.4637 116.815 34.1668 116.815 34.8698 116.927 35.5226 117.151 36.1253 117.374 36.7279 117.719 37.2141 118.185 37.5838 118.65 37.9537 119.244 38.1385 119.965 38.1385ZM130.294 39.6177C129.627 39.6177 129.022 39.4921 128.479 39.2411 127.936 38.9854 127.504 38.6179 127.185 38.1385 126.865 37.6546 126.705 37.0703 126.705 36.3855 126.705 35.7829 126.824 35.2944 127.061 34.92 127.299 34.5411 127.616 34.2443 128.013 34.0298 128.41 33.8152 128.849 33.6554 129.328 33.5504 129.812 33.4408 130.298 33.3541 130.787 33.2902 131.426 33.208 131.944 33.1464 132.341 33.1053 132.743 33.0597 133.035 32.9843 133.218 32.8793 133.405 32.7743 133.498 32.5917 133.498 32.3315L133.498 32.2767C133.498 31.601 133.314 31.076 132.944 30.7017 132.578 30.3273 132.024 30.1401 131.28 30.1401 130.508 30.1401 129.903 30.3091 129.465 30.6469 129.027 30.9847 128.718 31.3454 128.54 31.7289L127.007 31.181C127.281 30.5419 127.646 30.0443 128.102 29.6882 128.563 29.3275 129.066 29.0764 129.609 28.9349 130.157 28.7888 130.695 28.7158 131.225 28.7158 131.563 28.7158 131.951 28.7568 132.389 28.839 132.832 28.9166 133.259 29.0787 133.67 29.3252 134.085 29.5718 134.43 29.9438 134.704 30.4414 134.978 30.9391 135.115 31.6056 135.115 32.441L135.115 39.3712 133.498 39.3712 133.498 37.9468 133.416 37.9468C133.307 38.1751 133.124 38.4193 132.868 38.6795 132.613 38.9397 132.273 39.1612 131.848 39.3438 131.423 39.5264 130.906 39.6177 130.294 39.6177ZM130.54 38.1659C131.179 38.1659 131.718 38.0404 132.156 37.7893 132.599 37.5382 132.932 37.2141 133.156 36.8169 133.384 36.4197 133.498 36.002 133.498 35.5637L133.498 34.0846C133.43 34.1668 133.279 34.2421 133.046 34.3105 132.818 34.3745 132.554 34.4315 132.252 34.4817 131.955 34.5274 131.666 34.5685 131.382 34.605 131.104 34.637 130.878 34.6644 130.705 34.6872 130.284 34.742 129.892 34.831 129.527 34.9543 129.166 35.0729 128.874 35.2533 128.65 35.4952 128.431 35.7326 128.322 36.0568 128.322 36.4676 128.322 37.0292 128.529 37.4538 128.945 37.7414 129.364 38.0244 129.896 38.1659 130.54 38.1659ZM138.064 39.3712 138.064 28.8527 139.626 28.8527 139.626 30.4414 139.735 30.4414C139.927 29.921 140.274 29.4987 140.776 29.1746 141.278 28.8504 141.844 28.6884 142.475 28.6884 142.593 28.6884 142.741 28.6907 142.92 28.6952 143.098 28.6998 143.232 28.7066 143.324 28.7158L143.324 30.3593C143.269 30.3456 143.143 30.325 142.947 30.2976 142.755 30.2657 142.552 30.2497 142.338 30.2497 141.826 30.2497 141.37 30.357 140.968 30.5716 140.571 30.7816 140.256 31.0737 140.023 31.4481 139.795 31.8179 139.681 32.2402 139.681 32.715L139.681 39.3712 138.064 39.3712ZM148.891 39.5903C148.014 39.5903 147.241 39.3689 146.57 38.926 145.898 38.4787 145.373 37.8486 144.994 37.036 144.616 36.2188 144.426 35.2533 144.426 34.1394 144.426 33.0345 144.616 32.0758 144.994 31.2632 145.373 30.4506 145.901 29.8229 146.576 29.38 147.252 28.9372 148.033 28.7158 148.918 28.7158 149.603 28.7158 150.144 28.8299 150.541 29.0581 150.943 29.2819 151.249 29.5375 151.459 29.8251 151.673 30.1082 151.84 30.341 151.959 30.5236L152.096 30.5236 152.096 25.3466 153.712 25.3466 153.712 39.3712 152.151 39.3712 152.151 37.7551 151.959 37.7551C151.84 37.9468 151.671 38.1888 151.452 38.4809 151.233 38.7686 150.92 39.0265 150.514 39.2548 150.108 39.4784 149.567 39.5903 148.891 39.5903ZM149.11 38.1385C149.758 38.1385 150.306 37.9696 150.754 37.6318 151.201 37.2894 151.541 36.8169 151.774 36.2143 152.007 35.6071 152.123 34.9063 152.123 34.112 152.123 33.3267 152.009 32.6396 151.781 32.0507 151.553 31.4572 151.215 30.9961 150.768 30.6674 150.32 30.3342 149.768 30.1675 149.11 30.1675 148.425 30.1675 147.855 30.3433 147.398 30.6948 146.946 31.0418 146.606 31.5143 146.378 32.1123 146.154 32.7058 146.042 33.3724 146.042 34.112 146.042 34.8606 146.156 35.5409 146.385 36.1526 146.617 36.7598 146.96 37.2437 147.412 37.6044 147.868 37.9605 148.435 38.1385 149.11 38.1385ZM156.869 39.3712 156.869 38.1385 161.498 33.0711C162.041 32.4776 162.489 31.9617 162.84 31.5234 163.192 31.0806 163.452 30.6651 163.621 30.2771 163.795 29.8845 163.881 29.4736 163.881 29.0445 163.881 28.5514 163.762 28.1246 163.525 27.7639 163.292 27.4032 162.973 27.1247 162.566 26.9284 162.16 26.7321 161.703 26.634 161.197 26.634 160.658 26.634 160.188 26.7458 159.786 26.9695 159.389 27.1887 159.081 27.4968 158.861 27.894 158.647 28.2912 158.54 28.7568 158.54 29.291L156.923 29.291C156.923 28.4692 157.113 27.7479 157.492 27.127 157.871 26.5062 158.387 26.0222 159.04 25.6753 159.697 25.3283 160.434 25.1548 161.251 25.1548 162.073 25.1548 162.801 25.3283 163.436 25.6753 164.071 26.0222 164.568 26.4902 164.929 27.0791 165.289 27.668 165.47 28.3231 165.47 29.0445 165.47 29.5603 165.376 30.0648 165.189 30.5579 165.007 31.0463 164.687 31.5919 164.23 32.1945 163.778 32.7926 163.151 33.523 162.347 34.3859L159.197 37.7551 159.197 37.8646 165.717 37.8646 165.717 39.3712 156.869 39.3712ZM173.201 39.5629C172.626 39.5538 172.051 39.4442 171.476 39.2342 170.9 39.0242 170.375 38.6704 169.901 38.1728 169.426 37.6706 169.045 36.9926 168.757 36.1389 168.469 35.2807 168.325 34.2033 168.325 32.9067 168.325 31.665 168.442 30.5647 168.675 29.606 168.908 28.6427 169.245 27.8324 169.688 27.175 170.131 26.513 170.665 26.0108 171.291 25.6684 171.921 25.326 172.631 25.1548 173.42 25.1548 174.206 25.1548 174.904 25.3123 175.516 25.6273 176.132 25.9378 176.634 26.3715 177.022 26.9284 177.411 27.4854 177.662 28.1269 177.776 28.8527L176.105 28.8527C175.949 28.2227 175.648 27.7 175.201 27.2845 174.753 26.8691 174.16 26.6614 173.42 26.6614 172.334 26.6614 171.478 27.1339 170.852 28.0789 170.231 29.0239 169.919 30.3502 169.914 32.0576L170.024 32.0576C170.28 31.6695 170.583 31.3385 170.934 31.0646 171.291 30.7861 171.683 30.5716 172.112 30.4209 172.541 30.2703 172.996 30.1949 173.475 30.1949 174.279 30.1949 175.014 30.3958 175.68 30.7975 176.347 31.1947 176.881 31.7448 177.283 32.4479 177.685 33.1464 177.885 33.9476 177.885 34.8515 177.885 35.7189 177.691 36.5133 177.303 37.2346 176.915 37.9514 176.37 38.522 175.667 38.9466 174.968 39.3666 174.146 39.5721 173.201 39.5629ZM173.201 38.0564C173.776 38.0564 174.292 37.9126 174.749 37.6249 175.21 37.3373 175.573 36.9516 175.838 36.4676 176.107 35.9837 176.242 35.445 176.242 34.8515 176.242 34.2717 176.112 33.7444 175.851 33.2696 175.596 32.7903 175.242 32.4091 174.79 32.126 174.342 31.843 173.831 31.7015 173.256 31.7015 172.822 31.7015 172.418 31.7882 172.044 31.9617 171.67 32.1306 171.341 32.3634 171.058 32.6602 170.779 32.9569 170.56 33.2971 170.4 33.6805 170.241 34.0594 170.161 34.4589 170.161 34.8789 170.161 35.4359 170.291 35.9563 170.551 36.4402 170.816 36.9242 171.177 37.3145 171.633 37.6112 172.094 37.908 172.617 38.0564 173.201 38.0564Z" fill="url(#fill1)" transform="matrix(1 0 0 1.00787 6 28)"/></g></svg>