<svg width="162" height="163" viewBox="0 0 162 163" fill="none" xmlns="http://www.w3.org/2000/svg">
<path d="M104.396 137.407L70.5962 153.168C66.4264 155.112 62.627 156.092 59.1989 156.109C55.762 156.105 52.7995 155.278 50.3121 153.628C47.7946 151.968 45.8253 149.614 44.405 146.568C43.0573 143.678 42.4667 140.871 42.6328 138.149C42.7779 135.436 43.5145 133.002 44.8429 130.847C46.1622 128.673 47.9019 126.988 50.0617 125.792L60.9872 120.273C58.7484 120.75 56.6002 120.735 54.5441 120.23C52.458 119.715 50.5596 118.722 48.8489 117.252C47.1381 115.783 45.7215 113.845 44.5998 111.44C43.1707 108.375 42.6231 105.359 42.9574 102.393C43.2709 99.4364 44.4767 96.6886 46.5751 94.1514C48.6736 91.6142 51.6816 89.432 55.5985 87.6055L76.6055 77.8098L104.396 137.407ZM102.144 65.901C106.061 64.0744 109.666 63.1729 112.959 63.1963C116.251 63.2197 119.131 64.0621 121.597 65.7225C124.085 67.3731 126.044 69.7306 127.473 72.7956C128.595 75.201 129.168 77.5316 129.194 79.7866C129.22 82.0418 128.76 84.1346 127.813 86.0638C126.879 87.9637 125.51 89.6183 123.706 91.0265L134.956 86.2048C137.261 85.3191 139.67 85.0696 142.183 85.4563C144.688 85.8237 147.026 86.8242 149.197 88.4568C151.39 90.0796 153.159 92.3366 154.507 95.2269C155.928 98.2727 156.465 101.294 156.118 104.29C155.784 107.256 154.513 110.057 152.307 112.692C150.091 115.307 146.898 117.588 142.728 119.532L108.927 135.294L81.137 75.6967L102.144 65.901ZM57.1307 124.621C54.1614 126.006 51.821 127.806 50.1104 130.021C48.391 132.216 47.3608 134.598 47.0199 137.165C46.658 139.743 47.0608 142.283 48.2276 144.786C49.8831 148.336 52.5516 150.623 56.2333 151.646C59.8941 152.679 64.1573 152.061 69.0221 149.792L98.8736 135.872L87.1088 110.642L57.1307 124.621ZM111.303 130.076L141.154 116.156C146.019 113.888 149.232 111.02 150.794 107.552C152.377 104.074 152.341 100.559 150.686 97.009C149.519 94.5066 147.831 92.5651 145.624 91.1854C143.438 89.7959 140.951 89.0548 138.164 88.961C135.368 88.8477 132.485 89.4831 129.516 90.8676L99.5378 104.847L111.303 130.076ZM57.1725 90.9812C52.582 93.1219 49.5457 95.8481 48.0648 99.16C46.584 102.472 46.7037 105.972 48.4224 109.657C49.4808 111.927 50.9604 113.753 52.8606 115.134C54.7399 116.525 56.9058 117.322 59.3588 117.525C61.7908 117.737 64.3867 117.199 67.1455 115.913L85.5619 107.325L74.2313 83.0265L57.1725 90.9812ZM97.9909 101.529L116.407 92.9417C119.166 91.6553 121.246 90.0124 122.646 88.0131C124.068 86.0039 124.85 83.8318 124.993 81.498C125.156 79.1546 124.709 76.8478 123.65 74.5781C121.932 70.8922 119.327 68.5515 115.838 67.5569C112.349 66.5626 108.309 67.1359 103.718 69.2766L86.6603 77.2308L97.9909 101.529ZM70.6247 22.8222C67.9279 24.0798 66.486 25.5683 65.9382 27.3296C65.4677 28.8428 65.5466 30.9063 66.6186 33.7705C75.4792 32.9101 84.3129 37.6211 88.2894 46.1487C93.332 56.9632 88.6534 69.8178 77.839 74.8608C67.0245 79.9037 54.1692 75.2253 49.1261 64.4109C45.0204 55.6063 47.3587 45.449 54.2055 39.2561C52.7446 36.7492 51.2632 35.4272 49.8459 34.8335C48.1446 34.1211 46.0775 34.2688 43.3806 35.5263L41.6902 31.9011C44.9524 30.3799 48.2628 29.8338 51.3916 31.1442C53.757 32.135 55.7359 34.0751 57.4264 36.8511C58.1134 36.4318 58.8303 36.0457 59.5769 35.6975C60.5848 35.2275 61.6105 34.842 62.6459 34.538C61.5753 31.4166 61.3485 28.6186 62.1186 26.1422C63.1258 22.9031 65.672 20.7182 68.9343 19.1969L70.6247 22.8222ZM61.4031 39.6139C52.7514 43.6483 49.0081 53.9329 53.0425 62.5846C57.077 71.2361 67.3611 74.9787 76.0128 70.9444C84.6642 66.9099 88.407 56.6266 84.373 47.975C80.3386 39.3234 70.0548 35.5798 61.4031 39.6139ZM70.9081 45.0399C71.6931 44.6739 72.4622 44.5028 73.2154 44.5276C73.9688 44.5524 74.6619 44.7498 75.2937 45.1187C75.9297 45.4856 76.4616 45.9927 76.8887 46.6398L74.9256 47.5552C74.5365 47.068 74.063 46.7428 73.5062 46.5793C72.9494 46.4158 72.3533 46.4812 71.7183 46.7773C70.7527 47.2275 70.1957 47.9998 70.0472 49.0931C69.903 50.1842 70.1784 51.4799 70.8725 52.9795L70.969 52.9345C71.0223 52.4552 71.1525 52.0071 71.3608 51.5913C71.5715 51.1692 71.8502 50.7909 72.1962 50.4572C72.5442 50.1174 72.9479 49.8406 73.4068 49.6265C74.1706 49.2704 74.9488 49.135 75.7408 49.2202C76.5352 49.2991 77.269 49.5787 77.9422 50.0589C78.6153 50.5391 79.1486 51.1997 79.5408 52.0407C79.9328 52.8816 80.0962 53.7322 80.0325 54.5925C79.973 55.4508 79.6936 56.2397 79.1932 56.9589C78.6907 57.6738 77.9784 58.2416 77.0562 58.6612C76.4643 58.9268 75.8344 59.0894 75.1677 59.1496C74.5052 59.2077 73.8304 59.1041 73.1428 58.8396C72.4553 58.5751 71.7822 58.1027 71.1251 57.4218C70.4724 56.7389 69.8633 55.7902 69.2971 54.5761C68.7609 53.4262 68.3978 52.3517 68.209 51.3531C68.0246 50.3525 68.0065 49.4438 68.1537 48.628C68.299 47.8081 68.6029 47.0939 69.0664 46.486C69.53 45.878 70.1443 45.3961 70.9081 45.0399ZM59.2766 50.4638C60.1048 50.0776 60.9116 49.9025 61.6964 49.9388C62.4835 49.9688 63.1876 50.1842 63.8078 50.5845C64.4258 50.9805 64.8996 51.5326 65.2296 52.2403C65.4577 52.7295 65.5893 53.251 65.6229 53.8047C65.6608 54.3563 65.5884 55.0249 65.4061 55.8098C65.2216 56.5905 64.9178 57.576 64.4956 58.7654L63.1548 62.7298L63.1998 62.8263L69.1342 60.0591L69.9295 61.7646L61.2532 65.8104L60.5809 64.3687L62.8864 57.6668C63.1286 56.9427 63.3162 56.3195 63.4491 55.7978C63.5842 55.27 63.6484 54.7984 63.6428 54.3832C63.6372 53.9679 63.5446 53.5673 63.3646 53.1811C63.1605 52.7435 62.8814 52.4138 62.5274 52.1923C62.1714 51.9665 61.7748 51.8504 61.3385 51.8448C60.9005 51.835 60.458 51.9343 60.0119 52.1423C59.5401 52.3624 59.173 52.6509 58.9113 53.0079C58.6495 53.365 58.5067 53.7639 58.4819 54.2037C58.4572 54.6435 58.5548 55.0995 58.7748 55.5714L56.8755 56.457C56.5014 55.6547 56.3592 54.8667 56.4481 54.094C56.537 53.3213 56.8261 52.6196 57.3156 51.9891C57.8032 51.3543 58.4569 50.846 59.2766 50.4638ZM73.7351 51.4399C73.3534 51.618 73.0334 51.8568 72.7754 52.1546C72.5217 52.4505 72.3321 52.784 72.2076 53.1554C72.0831 53.5269 72.0287 53.9131 72.0432 54.3139C72.0599 54.7082 72.154 55.0899 72.326 55.4588C72.5561 55.9523 72.8838 56.3569 73.3073 56.6714C73.735 56.9837 74.2087 57.1758 74.7277 57.2471C75.2488 57.3121 75.7626 57.2267 76.2686 56.9908C76.775 56.7547 77.17 56.4188 77.453 55.9838C77.7361 55.5488 77.8951 55.0667 77.9308 54.5381C77.9663 54.0097 77.8635 53.4859 77.6215 52.9669C77.3854 52.4605 77.056 52.0521 76.6344 51.7419C76.2172 51.4298 75.7543 51.2433 75.2455 51.1828C74.741 51.1203 74.2372 51.2058 73.7351 51.4399Z" fill="url(#paint0_linear_7_144)"/>
<defs>
<linearGradient id="paint0_linear_7_144" x1="57.5091" y1="165.205" x2="128.681" y2="50.8422" gradientUnits="userSpaceOnUse">
<stop offset="0.230769" stop-color="#845EC2"/>
<stop offset="0.548077" stop-color="#FF6971"/>
<stop offset="0.817308" stop-color="#F9F871"/>
</linearGradient>
</defs>
</svg>
