<svg width="282" height="58" viewBox="0 0 282 58" fill="none" xmlns="http://www.w3.org/2000/svg">
<path d="M4.22727 46L4.22727 11.0909L16.4318 11.0909C18.8636 11.0909 20.8693 11.5114 22.4489 12.3523C24.0284 13.1818 25.2045 14.3011 25.9773 15.7102C26.75 17.108 27.1364 18.6591 27.1364 20.3636C27.1364 21.8636 26.8693 23.1023 26.3352 24.0795C25.8125 25.0568 25.1193 25.8295 24.2557 26.3977C23.4034 26.9659 22.4773 27.3864 21.4773 27.6591V28C22.5455 28.0682 23.6193 28.4432 24.6989 29.125C25.7784 29.8068 26.6818 30.7841 27.4091 32.0568C28.1364 33.3295 28.5 34.8864 28.5 36.7273C28.5 38.4773 28.1023 40.0511 27.3068 41.4489C26.5114 42.8466 25.2557 43.9545 23.5398 44.7727C21.8239 45.5909 19.5909 46 16.8409 46H4.22727ZM8.45455 42.25H16.8409C19.6023 42.25 21.5625 41.7159 22.7216 40.6477C23.892 39.5682 24.4773 38.2614 24.4773 36.7273C24.4773 35.5455 24.1761 34.4545 23.5739 33.4545C22.9716 32.4432 22.1136 31.6364 21 31.0341C19.8864 30.4205 18.5682 30.1136 17.0455 30.1136H8.45455V42.25ZM8.45455 26.4318H16.2955C17.5682 26.4318 18.7159 26.1818 19.7386 25.6818C20.7727 25.1818 21.5909 24.4773 22.1932 23.5682C22.8068 22.6591 23.1136 21.5909 23.1136 20.3636C23.1136 18.8295 22.5795 17.5284 21.5114 16.4602C20.4432 15.3807 18.75 14.8409 16.4318 14.8409L8.45455 14.8409L8.45455 26.4318ZM51.4006 35.2955V19.8182H55.4233V46H51.4006V41.5682H51.1278C50.5142 42.8977 49.5597 44.0284 48.2642 44.9602C46.9688 45.8807 45.3324 46.3409 43.3551 46.3409C41.7188 46.3409 40.2642 45.983 38.9915 45.267C37.7188 44.5398 36.7188 43.4489 35.9915 41.9943C35.2642 40.5284 34.9006 38.6818 34.9006 36.4545V19.8182H38.9233V36.1818C38.9233 38.0909 39.4574 39.6136 40.5256 40.75C41.6051 41.8864 42.9801 42.4545 44.6506 42.4545C45.6506 42.4545 46.6676 42.1989 47.7017 41.6875C48.7472 41.1761 49.6222 40.392 50.3267 39.3352C51.0426 38.2784 51.4006 36.9318 51.4006 35.2955ZM73.3594 56.3636C71.4162 56.3636 69.7457 56.1136 68.348 55.6136C66.9503 55.125 65.7855 54.4773 64.8537 53.6705C63.9332 52.875 63.2003 52.0227 62.6548 51.1136L65.8594 48.8636C66.223 49.3409 66.6832 49.8864 67.2401 50.5C67.7969 51.125 68.5582 51.6648 69.5241 52.1193C70.5014 52.5852 71.7798 52.8182 73.3594 52.8182C75.473 52.8182 77.2173 52.3068 78.5923 51.2841C79.9673 50.2614 80.6548 48.6591 80.6548 46.4773V41.1591H80.3139C80.0185 41.6364 79.598 42.2273 79.0526 42.9318C78.5185 43.625 77.7457 44.2443 76.7344 44.7898C75.7344 45.3239 74.3821 45.5909 72.6776 45.5909C70.5639 45.5909 68.6662 45.0909 66.9844 44.0909C65.3139 43.0909 63.9901 41.6364 63.0128 39.7273C62.0469 37.8182 61.5639 35.5 61.5639 32.7727C61.5639 30.0909 62.0355 27.7557 62.9787 25.767C63.9219 23.767 65.2344 22.2216 66.9162 21.1307C68.598 20.0284 70.5412 19.4773 72.7457 19.4773C74.4503 19.4773 75.8026 19.7614 76.8026 20.3295C77.8139 20.8864 78.5866 21.5227 79.1207 22.2386C79.6662 22.9432 80.0866 23.5227 80.3821 23.9773H80.7912V19.8182H84.6776V46.75C84.6776 49 84.1662 50.8295 83.1435 52.2386C82.1321 53.6591 80.7685 54.6989 79.0526 55.358C77.348 56.0284 75.4503 56.3636 73.3594 56.3636ZM73.223 41.9773C74.8366 41.9773 76.2003 41.608 77.3139 40.8693C78.4276 40.1307 79.2741 39.0682 79.8537 37.6818C80.4332 36.2955 80.723 34.6364 80.723 32.7045C80.723 30.8182 80.4389 29.1534 79.8707 27.7102C79.3026 26.267 78.4616 25.1364 77.348 24.3182C76.2344 23.5 74.8594 23.0909 73.223 23.0909C71.5185 23.0909 70.098 23.5227 68.9616 24.3864C67.8366 25.25 66.9901 26.4091 66.4219 27.8636C65.8651 29.3182 65.5866 30.9318 65.5866 32.7045C65.5866 34.5227 65.8707 36.1307 66.4389 37.5284C67.0185 38.9148 67.8707 40.0057 68.9957 40.8011C70.1321 41.5852 71.5412 41.9773 73.223 41.9773ZM92.5866 46V11.0909H104.791C107.223 11.0909 109.229 11.5114 110.808 12.3523C112.388 13.1818 113.564 14.3011 114.337 15.7102C115.109 17.108 115.496 18.6591 115.496 20.3636C115.496 21.8636 115.229 23.1023 114.695 24.0795C114.172 25.0568 113.479 25.8295 112.615 26.3977C111.763 26.9659 110.837 27.3864 109.837 27.6591V28C110.905 28.0682 111.979 28.4432 113.058 29.125C114.138 29.8068 115.041 30.7841 115.768 32.0568C116.496 33.3295 116.859 34.8864 116.859 36.7273C116.859 38.4773 116.462 40.0511 115.666 41.4489C114.871 42.8466 113.615 43.9545 111.899 44.7727C110.183 45.5909 107.95 46 105.2 46H92.5866ZM96.8139 42.25H105.2C107.962 42.25 109.922 41.7159 111.081 40.6477C112.251 39.5682 112.837 38.2614 112.837 36.7273C112.837 35.5455 112.536 34.4545 111.933 33.4545C111.331 32.4432 110.473 31.6364 109.359 31.0341C108.246 30.4205 106.928 30.1136 105.405 30.1136H96.8139V42.25ZM96.8139 26.4318H104.655C105.928 26.4318 107.075 26.1818 108.098 25.6818C109.132 25.1818 109.95 24.4773 110.553 23.5682C111.166 22.6591 111.473 21.5909 111.473 20.3636C111.473 18.8295 110.939 17.5284 109.871 16.4602C108.803 15.3807 107.109 14.8409 104.791 14.8409H96.8139V26.4318ZM133.896 46.5455C131.533 46.5455 129.459 45.983 127.675 44.858C125.902 43.733 124.516 42.1591 123.516 40.1364C122.527 38.1136 122.033 35.75 122.033 33.0455C122.033 30.3182 122.527 27.9375 123.516 25.9034C124.516 23.8693 125.902 22.2898 127.675 21.1648C129.459 20.0398 131.533 19.4773 133.896 19.4773C136.26 19.4773 138.328 20.0398 140.101 21.1648C141.885 22.2898 143.271 23.8693 144.26 25.9034C145.26 27.9375 145.76 30.3182 145.76 33.0455C145.76 35.75 145.26 38.1136 144.26 40.1364C143.271 42.1591 141.885 43.733 140.101 44.858C138.328 45.983 136.26 46.5455 133.896 46.5455ZM133.896 42.9318C135.692 42.9318 137.169 42.4716 138.328 41.5511C139.487 40.6307 140.345 39.4205 140.902 37.9205C141.459 36.4205 141.737 34.7955 141.737 33.0455C141.737 31.2955 141.459 29.6648 140.902 28.1534C140.345 26.642 139.487 25.4205 138.328 24.4886C137.169 23.5568 135.692 23.0909 133.896 23.0909C132.101 23.0909 130.624 23.5568 129.464 24.4886C128.305 25.4205 127.447 26.642 126.891 28.1534C126.334 29.6648 126.055 31.2955 126.055 33.0455C126.055 34.7955 126.334 36.4205 126.891 37.9205C127.447 39.4205 128.305 40.6307 129.464 41.5511C130.624 42.4716 132.101 42.9318 133.896 42.9318ZM159.605 46.6136C157.946 46.6136 156.44 46.3011 155.088 45.6761C153.736 45.0398 152.662 44.125 151.866 42.9318C151.071 41.7273 150.673 40.2727 150.673 38.5682C150.673 37.0682 150.969 35.8523 151.56 34.9205C152.151 33.9773 152.94 33.2386 153.929 32.7045C154.918 32.1705 156.009 31.7727 157.202 31.5114C158.406 31.2386 159.616 31.0227 160.832 30.8636C162.423 30.6591 163.713 30.5057 164.702 30.4034C165.702 30.2898 166.429 30.1023 166.884 29.8409C167.349 29.5795 167.582 29.125 167.582 28.4773V28.3409C167.582 26.6591 167.122 25.3523 166.202 24.4205C165.293 23.4886 163.912 23.0227 162.06 23.0227C160.139 23.0227 158.634 23.4432 157.543 24.2841C156.452 25.125 155.685 26.0227 155.241 26.9773L151.423 25.6136C152.105 24.0227 153.014 22.7841 154.151 21.8977C155.298 21 156.548 20.375 157.901 20.0227C159.264 19.6591 160.605 19.4773 161.923 19.4773C162.764 19.4773 163.73 19.5795 164.821 19.7841C165.923 19.9773 166.986 20.3807 168.009 20.9943C169.043 21.608 169.901 22.5341 170.582 23.7727C171.264 25.0114 171.605 26.6705 171.605 28.75V46H167.582V42.4545H167.378C167.105 43.0227 166.651 43.6307 166.014 44.2784C165.378 44.9261 164.531 45.4773 163.474 45.9318C162.418 46.3864 161.128 46.6136 159.605 46.6136ZM160.219 43C161.81 43 163.151 42.6875 164.241 42.0625C165.344 41.4375 166.173 40.6307 166.73 39.642C167.298 38.6534 167.582 37.6136 167.582 36.5227V32.8409C167.412 33.0455 167.037 33.233 166.457 33.4034C165.889 33.5625 165.23 33.7045 164.48 33.8295C163.741 33.9432 163.02 34.0455 162.315 34.1364C161.622 34.2159 161.06 34.2841 160.628 34.3409C159.582 34.4773 158.605 34.6989 157.696 35.0057C156.798 35.3011 156.071 35.75 155.514 36.3523C154.969 36.9432 154.696 37.75 154.696 38.7727C154.696 40.1705 155.213 41.2273 156.247 41.9432C157.293 42.6477 158.616 43 160.219 43ZM178.947 46V19.8182H182.834V23.7727H183.107C183.584 22.4773 184.447 21.4261 185.697 20.6193C186.947 19.8125 188.357 19.4091 189.925 19.4091C190.22 19.4091 190.589 19.4148 191.033 19.4261C191.476 19.4375 191.811 19.4545 192.038 19.4773V23.5682C191.902 23.5341 191.589 23.483 191.101 23.4148C190.624 23.3352 190.118 23.2955 189.584 23.2955C188.311 23.2955 187.175 23.5625 186.175 24.0966C185.186 24.6193 184.402 25.3466 183.822 26.2784C183.254 27.1989 182.97 28.25 182.97 29.4318V46H178.947ZM205.896 46.5455C203.714 46.5455 201.788 45.9943 200.118 44.892C198.447 43.7784 197.141 42.2102 196.197 40.1875C195.254 38.1534 194.783 35.75 194.783 32.9773C194.783 30.2273 195.254 27.8409 196.197 25.8182C197.141 23.7955 198.453 22.233 200.135 21.1307C201.817 20.0284 203.76 19.4773 205.964 19.4773C207.669 19.4773 209.016 19.7614 210.004 20.3295C211.004 20.8864 211.766 21.5227 212.288 22.2386C212.822 22.9432 213.237 23.5227 213.533 23.9773H213.874V11.0909H217.896V46H214.01V41.9773H213.533C213.237 42.4545 212.817 43.0568 212.271 43.7841C211.726 44.5 210.947 45.142 209.936 45.7102C208.925 46.267 207.578 46.5455 205.896 46.5455ZM206.442 42.9318C208.055 42.9318 209.419 42.5114 210.533 41.6705C211.646 40.8182 212.493 39.642 213.072 38.142C213.652 36.6307 213.942 34.8864 213.942 32.9091C213.942 30.9545 213.658 29.2443 213.089 27.7784C212.521 26.3011 211.68 25.1534 210.567 24.3352C209.453 23.5057 208.078 23.0909 206.442 23.0909C204.737 23.0909 203.317 23.5284 202.18 24.4034C201.055 25.267 200.209 26.4432 199.641 27.9318C199.084 29.4091 198.805 31.0682 198.805 32.9091C198.805 34.7727 199.089 36.4659 199.658 37.9886C200.237 39.5 201.089 40.7045 202.214 41.6023C203.351 42.4886 204.76 42.9318 206.442 42.9318ZM225.754 46V42.9318L237.277 30.3182C238.629 28.8409 239.743 27.5568 240.618 26.4659C241.493 25.3636 242.141 24.3295 242.561 23.3636C242.993 22.3864 243.209 21.3636 243.209 20.2955C243.209 19.0682 242.913 18.0057 242.322 17.108C241.743 16.2102 240.947 15.517 239.936 15.0284C238.925 14.5398 237.788 14.2955 236.527 14.2955C235.186 14.2955 234.016 14.5739 233.016 15.1307C232.027 15.6761 231.26 16.4432 230.714 17.4318C230.18 18.4205 229.913 19.5795 229.913 20.9091H225.891C225.891 18.8636 226.362 17.0682 227.305 15.5227C228.249 13.9773 229.533 12.7727 231.158 11.9091C232.794 11.0455 234.629 10.6136 236.663 10.6136C238.709 10.6136 240.521 11.0455 242.101 11.9091C243.68 12.7727 244.919 13.9375 245.817 15.4034C246.714 16.8693 247.163 18.5 247.163 20.2955C247.163 21.5795 246.93 22.8352 246.464 24.0625C246.01 25.2784 245.214 26.6364 244.078 28.1364C242.953 29.625 241.391 31.4432 239.391 33.5909L231.55 41.9773V42.25H247.777V46H225.754ZM266.408 46.4773C264.976 46.4545 263.544 46.1818 262.112 45.6591C260.68 45.1364 259.374 44.2557 258.192 43.017C257.01 41.767 256.061 40.0795 255.345 37.9545C254.629 35.8182 254.271 33.1364 254.271 29.9091C254.271 26.8182 254.561 24.0795 255.141 21.6932C255.72 19.2955 256.561 17.2784 257.663 15.642C258.766 13.9943 260.095 12.7443 261.652 11.892C263.22 11.0398 264.987 10.6136 266.953 10.6136C268.908 10.6136 270.646 11.0057 272.169 11.7898C273.703 12.5625 274.953 13.642 275.919 15.0284C276.885 16.4148 277.51 18.0114 277.794 19.8182H273.635C273.249 18.25 272.499 16.9489 271.385 15.9148C270.271 14.8807 268.794 14.3636 266.953 14.3636C264.249 14.3636 262.118 15.5398 260.561 17.892C259.016 20.2443 258.237 23.5455 258.226 27.7955H258.499C259.135 26.8295 259.891 26.0057 260.766 25.3239C261.652 24.6307 262.629 24.0966 263.697 23.7216C264.766 23.3466 265.896 23.1591 267.089 23.1591C269.089 23.1591 270.919 23.6591 272.578 24.6591C274.237 25.6477 275.567 27.017 276.567 28.767C277.567 30.5057 278.067 32.5 278.067 34.75C278.067 36.9091 277.584 38.8864 276.618 40.6818C275.652 42.4659 274.294 43.8864 272.544 44.9432C270.805 45.9886 268.76 46.5 266.408 46.4773ZM266.408 42.7273C267.839 42.7273 269.124 42.3693 270.26 41.6534C271.408 40.9375 272.311 39.9773 272.97 38.7727C273.641 37.5682 273.976 36.2273 273.976 34.75C273.976 33.3068 273.652 31.9943 273.004 30.8125C272.368 29.6193 271.487 28.6705 270.362 27.9659C269.249 27.2614 267.976 26.9091 266.544 26.9091C265.464 26.9091 264.459 27.125 263.527 27.5568C262.595 27.9773 261.777 28.5568 261.072 29.2955C260.379 30.0341 259.834 30.8807 259.436 31.8352C259.038 32.7784 258.839 33.7727 258.839 34.8182C258.839 36.2045 259.163 37.5 259.811 38.7045C260.47 39.9091 261.368 40.8807 262.504 41.6193C263.652 42.358 264.953 42.7273 266.408 42.7273Z" fill="url(#paint0_linear_7_145)"/>
<defs>
<linearGradient id="paint0_linear_7_145" x1="-5.5" y1="29" x2="43.3047" y2="-80.5038" gradientUnits="userSpaceOnUse">
<stop offset="0.230769" stop-color="#845EC2"/>
<stop offset="0.548077" stop-color="#FF6971"/>
<stop offset="0.817308" stop-color="#F9F871"/>
</linearGradient>
</defs>
</svg>
